<svg width="73" height="63" viewBox="0 0 73 63" fill="none" xmlns="http://www.w3.org/2000/svg">
<rect width="72.372" height="62.8621" rx="15" fill="#19AE4C"/>
<path d="M43.8774 45.1641C44.0504 45.4382 44.1536 45.7505 44.1778 46.0738C44.295 47.6409 42.6046 48.701 41.2268 47.9452C40.9303 47.7826 40.6766 47.5455 40.4959 47.2596L31.1732 32.5137C30.627 31.6497 31.0101 30.5046 31.8635 29.9419C32.7413 29.3631 33.9821 29.4927 34.5435 30.3818L43.8774 45.1641ZM32.5182 21.2085C32.6342 22.7592 32.1295 24.2924 31.115 25.4709C30.1006 26.6495 28.6595 27.3767 27.1089 27.4928C26.5812 27.5322 26.1183 27.8597 25.9053 28.3441L16.8124 49.0314C16.6763 49.3411 16.4606 49.6135 16.1915 49.8186C14.9416 50.7708 13.1124 49.9743 12.9951 48.4074C12.9709 48.0839 13.0266 47.7593 13.1572 47.4623L18.9449 34.3036C21.1743 29.2349 18.6667 21.5585 22.5054 17.5677C23.0337 17.0223 23.6607 16.5828 24.3486 16.2765C25.3347 15.8376 26.1687 14.9267 26.0881 13.8503L26.0568 13.4321C25.9936 12.5867 26.7206 11.8161 27.3631 12.3691C27.7559 12.7073 27.9984 13.1876 28.037 13.7045C28.1401 15.0819 29.1695 16.176 30.2631 17.0197C31.5487 18.0115 32.3918 19.5193 32.5182 21.2085ZM28.6203 21.5002C28.5817 20.9833 28.3392 20.5029 27.9464 20.1648C27.5535 19.8267 27.0425 19.6584 26.5256 19.6971C26.0087 19.7358 25.5283 19.9782 25.1902 20.371C24.8521 20.7639 24.6838 21.2749 24.7225 21.7918C24.7612 22.3087 25.0036 22.7891 25.3964 23.1272C25.7893 23.4654 26.3003 23.6336 26.8172 23.5949C27.3341 23.5562 27.8145 23.3138 28.1526 22.921C28.4908 22.5281 28.659 22.0171 28.6203 21.5002Z" fill="#FCFFFD"/>
<path d="M50.6942 44.3324L54.8216 30.8674C55.4905 28.6852 54.3395 26.3602 52.1985 25.5692C49.8793 24.7123 47.3167 25.981 46.5921 28.3449L42.6074 41.3445C42.5343 41.5836 42.526 41.8417 42.5834 42.0913L42.689 42.4637C43.6234 45.7611 47.6033 47.0578 50.3008 44.9438C50.4847 44.783 50.621 44.5714 50.6942 44.3324ZM57.7308 21.3766C57.9454 20.6763 57.8782 19.9039 57.5442 19.2293C57.2102 18.5546 56.6366 18.0329 55.9496 17.779L53.0439 16.7054C52.3569 16.4516 51.6127 16.4864 50.9751 16.8021C50.3375 17.1178 49.8587 17.6885 49.644 18.3887C49.1345 20.0508 50.0112 21.8215 51.6418 22.424L53.9173 23.2647C55.4948 23.8476 57.2379 22.9846 57.7308 21.3766Z" fill="#FBFFFC"/>
</svg>
