<svg width="122" height="34" viewBox="0 0 122 34" fill="none" xmlns="http://www.w3.org/2000/svg">
<rect width="122" height="34" rx="10" fill="black"/>
<path d="M26.3937 17.7396C26.382 15.6093 27.3523 14.0014 29.3162 12.8172C28.2173 11.2558 26.5574 10.3967 24.3656 10.2284C22.2906 10.0658 20.0228 11.4299 19.1929 11.4299C18.3162 11.4299 16.3055 10.2864 14.7274 10.2864C11.466 10.3387 8 12.8695 8 18.0182C8 19.539 8.28055 21.1101 8.84166 22.7315C9.5898 24.8618 12.2901 30.086 15.1073 29.9989C16.5802 29.9641 17.6206 28.9599 19.5377 28.9599C21.3964 28.9599 22.3608 29.9989 24.0032 29.9989C26.8438 29.9583 29.2869 25.2101 30 23.074C26.1892 21.292 26.3937 17.8498 26.3937 17.7396V17.7396ZM23.0855 8.20835C24.6812 6.32766 24.5351 4.61529 24.4883 4C23.0797 4.08126 21.449 4.95196 20.5197 6.02581C19.4968 7.17513 18.8948 8.59726 19.0234 10.1993C20.5489 10.3154 21.94 9.53761 23.0855 8.20835V8.20835Z" fill="#F2F2F2"/>
<path d="M33.846 11V4.7H36.6C37.284 4.7 37.884 4.832 38.4 5.096C38.916 5.36 39.318 5.726 39.606 6.194C39.894 6.662 40.038 7.214 40.038 7.85C40.038 8.48 39.894 9.032 39.606 9.506C39.318 9.974 38.916 10.34 38.4 10.604C37.884 10.868 37.284 11 36.6 11H33.846ZM35.016 10.01H36.546C37.02 10.01 37.428 9.92 37.77 9.74C38.118 9.56 38.385 9.308 38.571 8.984C38.763 8.66 38.859 8.282 38.859 7.85C38.859 7.412 38.763 7.034 38.571 6.716C38.385 6.392 38.118 6.14 37.77 5.96C37.428 5.78 37.02 5.69 36.546 5.69H35.016V10.01ZM43.3335 11.063C42.8415 11.063 42.4035 10.958 42.0195 10.748C41.6355 10.532 41.3325 10.238 41.1105 9.866C40.8885 9.494 40.7775 9.071 40.7775 8.597C40.7775 8.117 40.8885 7.694 41.1105 7.328C41.3325 6.956 41.6355 6.665 42.0195 6.455C42.4035 6.245 42.8415 6.14 43.3335 6.14C43.8315 6.14 44.2725 6.245 44.6565 6.455C45.0465 6.665 45.3495 6.953 45.5655 7.319C45.7875 7.685 45.8985 8.111 45.8985 8.597C45.8985 9.071 45.7875 9.494 45.5655 9.866C45.3495 10.238 45.0465 10.532 44.6565 10.748C44.2725 10.958 43.8315 11.063 43.3335 11.063ZM43.3335 10.1C43.6095 10.1 43.8555 10.04 44.0715 9.92C44.2875 9.8 44.4555 9.626 44.5755 9.398C44.7015 9.17 44.7645 8.903 44.7645 8.597C44.7645 8.285 44.7015 8.018 44.5755 7.796C44.4555 7.568 44.2875 7.394 44.0715 7.274C43.8555 7.154 43.6125 7.094 43.3425 7.094C43.0665 7.094 42.8205 7.154 42.6045 7.274C42.3945 7.394 42.2265 7.568 42.1005 7.796C41.9745 8.018 41.9115 8.285 41.9115 8.597C41.9115 8.903 41.9745 9.17 42.1005 9.398C42.2265 9.626 42.3945 9.8 42.6045 9.92C42.8205 10.04 43.0635 10.1 43.3335 10.1ZM47.9045 11L46.1405 6.194H47.2025L48.7145 10.433H48.2105L49.7945 6.194H50.7395L52.2785 10.433H51.7835L53.3405 6.194H54.3395L52.5665 11H51.4865L50.0825 7.247H50.4155L48.9845 11H47.9045ZM57.84 6.14C58.224 6.14 58.566 6.215 58.866 6.365C59.172 6.515 59.412 6.746 59.586 7.058C59.76 7.364 59.847 7.76 59.847 8.246V11H58.722V8.39C58.722 7.964 58.62 7.646 58.416 7.436C58.218 7.226 57.939 7.121 57.579 7.121C57.315 7.121 57.081 7.175 56.877 7.283C56.673 7.391 56.514 7.553 56.4 7.769C56.292 7.979 56.238 8.246 56.238 8.57V11H55.113V6.194H56.184V7.49L55.995 7.094C56.163 6.788 56.406 6.554 56.724 6.392C57.048 6.224 57.42 6.14 57.84 6.14ZM61.2741 11V4.322H62.3991V11H61.2741ZM66.0357 11.063C65.5437 11.063 65.1057 10.958 64.7217 10.748C64.3377 10.532 64.0347 10.238 63.8127 9.866C63.5907 9.494 63.4797 9.071 63.4797 8.597C63.4797 8.117 63.5907 7.694 63.8127 7.328C64.0347 6.956 64.3377 6.665 64.7217 6.455C65.1057 6.245 65.5437 6.14 66.0357 6.14C66.5337 6.14 66.9747 6.245 67.3587 6.455C67.7487 6.665 68.0517 6.953 68.2677 7.319C68.4897 7.685 68.6007 8.111 68.6007 8.597C68.6007 9.071 68.4897 9.494 68.2677 9.866C68.0517 10.238 67.7487 10.532 67.3587 10.748C66.9747 10.958 66.5337 11.063 66.0357 11.063ZM66.0357 10.1C66.3117 10.1 66.5577 10.04 66.7737 9.92C66.9897 9.8 67.1577 9.626 67.2777 9.398C67.4037 9.17 67.4667 8.903 67.4667 8.597C67.4667 8.285 67.4037 8.018 67.2777 7.796C67.1577 7.568 66.9897 7.394 66.7737 7.274C66.5577 7.154 66.3147 7.094 66.0447 7.094C65.7687 7.094 65.5227 7.154 65.3067 7.274C65.0967 7.394 64.9287 7.568 64.8027 7.796C64.6767 8.018 64.6137 8.285 64.6137 8.597C64.6137 8.903 64.6767 9.17 64.8027 9.398C64.9287 9.626 65.0967 9.8 65.3067 9.92C65.5227 10.04 65.7657 10.1 66.0357 10.1ZM72.576 11V10.028L72.513 9.821V8.12C72.513 7.79 72.414 7.535 72.216 7.355C72.018 7.169 71.718 7.076 71.316 7.076C71.046 7.076 70.779 7.118 70.515 7.202C70.257 7.286 70.038 7.403 69.858 7.553L69.417 6.734C69.675 6.536 69.981 6.389 70.335 6.293C70.695 6.191 71.067 6.14 71.451 6.14C72.147 6.14 72.684 6.308 73.062 6.644C73.446 6.974 73.638 7.487 73.638 8.183V11H72.576ZM71.064 11.063C70.704 11.063 70.389 11.003 70.119 10.883C69.849 10.757 69.639 10.586 69.489 10.37C69.345 10.148 69.273 9.899 69.273 9.623C69.273 9.353 69.336 9.11 69.462 8.894C69.594 8.678 69.807 8.507 70.101 8.381C70.395 8.255 70.785 8.192 71.271 8.192H72.666V8.939H71.352C70.968 8.939 70.71 9.002 70.578 9.128C70.446 9.248 70.38 9.398 70.38 9.578C70.38 9.782 70.461 9.944 70.623 10.064C70.785 10.184 71.01 10.244 71.298 10.244C71.574 10.244 71.82 10.181 72.036 10.055C72.258 9.929 72.417 9.743 72.513 9.497L72.702 10.172C72.594 10.454 72.399 10.673 72.117 10.829C71.841 10.985 71.49 11.063 71.064 11.063ZM77.1245 11.063C76.6625 11.063 76.2455 10.961 75.8735 10.757C75.5075 10.547 75.2195 10.259 75.0095 9.893C74.7995 9.527 74.6945 9.095 74.6945 8.597C74.6945 8.099 74.7995 7.667 75.0095 7.301C75.2195 6.935 75.5075 6.65 75.8735 6.446C76.2455 6.242 76.6625 6.14 77.1245 6.14C77.5265 6.14 77.8865 6.23 78.2045 6.41C78.5225 6.584 78.7745 6.851 78.9605 7.211C79.1465 7.571 79.2395 8.033 79.2395 8.597C79.2395 9.155 79.1495 9.617 78.9695 9.983C78.7895 10.343 78.5405 10.613 78.2225 10.793C77.9045 10.973 77.5385 11.063 77.1245 11.063ZM77.2595 10.1C77.5295 10.1 77.7695 10.04 77.9795 9.92C78.1955 9.8 78.3665 9.626 78.4925 9.398C78.6245 9.17 78.6905 8.903 78.6905 8.597C78.6905 8.285 78.6245 8.018 78.4925 7.796C78.3665 7.568 78.1955 7.394 77.9795 7.274C77.7695 7.154 77.5295 7.094 77.2595 7.094C76.9895 7.094 76.7465 7.154 76.5305 7.274C76.3205 7.394 76.1495 7.568 76.0175 7.796C75.8915 8.018 75.8285 8.285 75.8285 8.597C75.8285 8.903 75.8915 9.17 76.0175 9.398C76.1495 9.626 76.3205 9.8 76.5305 9.92C76.7465 10.04 76.9895 10.1 77.2595 10.1ZM78.7175 11V9.866L78.7625 8.588L78.6725 7.31V4.322H79.7885V11H78.7175ZM85.9166 11.063C85.4246 11.063 84.9866 10.958 84.6026 10.748C84.2186 10.532 83.9156 10.238 83.6936 9.866C83.4716 9.494 83.3606 9.071 83.3606 8.597C83.3606 8.117 83.4716 7.694 83.6936 7.328C83.9156 6.956 84.2186 6.665 84.6026 6.455C84.9866 6.245 85.4246 6.14 85.9166 6.14C86.4146 6.14 86.8556 6.245 87.2396 6.455C87.6296 6.665 87.9326 6.953 88.1486 7.319C88.3706 7.685 88.4816 8.111 88.4816 8.597C88.4816 9.071 88.3706 9.494 88.1486 9.866C87.9326 10.238 87.6296 10.532 87.2396 10.748C86.8556 10.958 86.4146 11.063 85.9166 11.063ZM85.9166 10.1C86.1926 10.1 86.4386 10.04 86.6546 9.92C86.8706 9.8 87.0386 9.626 87.1586 9.398C87.2846 9.17 87.3476 8.903 87.3476 8.597C87.3476 8.285 87.2846 8.018 87.1586 7.796C87.0386 7.568 86.8706 7.394 86.6546 7.274C86.4386 7.154 86.1956 7.094 85.9256 7.094C85.6496 7.094 85.4036 7.154 85.1876 7.274C84.9776 7.394 84.8096 7.568 84.6836 7.796C84.5576 8.018 84.4946 8.285 84.4946 8.597C84.4946 8.903 84.5576 9.17 84.6836 9.398C84.8096 9.626 84.9776 9.8 85.1876 9.92C85.4036 10.04 85.6466 10.1 85.9166 10.1ZM92.2843 6.14C92.6683 6.14 93.0103 6.215 93.3103 6.365C93.6163 6.515 93.8563 6.746 94.0303 7.058C94.2043 7.364 94.2913 7.76 94.2913 8.246V11H93.1663V8.39C93.1663 7.964 93.0643 7.646 92.8603 7.436C92.6623 7.226 92.3833 7.121 92.0233 7.121C91.7593 7.121 91.5253 7.175 91.3213 7.283C91.1173 7.391 90.9583 7.553 90.8443 7.769C90.7363 7.979 90.6823 8.246 90.6823 8.57V11H89.5573V6.194H90.6283V7.49L90.4393 7.094C90.6073 6.788 90.8503 6.554 91.1683 6.392C91.4923 6.224 91.8643 6.14 92.2843 6.14ZM100.015 11.063C99.4868 11.063 99.0788 10.928 98.7908 10.658C98.5028 10.382 98.3588 9.977 98.3588 9.443V5.132H99.4838V9.416C99.4838 9.644 99.5408 9.821 99.6548 9.947C99.7748 10.073 99.9398 10.136 100.15 10.136C100.402 10.136 100.612 10.07 100.78 9.938L101.095 10.739C100.963 10.847 100.801 10.928 100.609 10.982C100.417 11.036 100.219 11.063 100.015 11.063ZM97.5668 7.13V6.23H100.771V7.13H97.5668ZM104.747 6.14C105.131 6.14 105.473 6.215 105.773 6.365C106.079 6.515 106.319 6.746 106.493 7.058C106.667 7.364 106.754 7.76 106.754 8.246V11H105.629V8.39C105.629 7.964 105.527 7.646 105.323 7.436C105.125 7.226 104.846 7.121 104.486 7.121C104.222 7.121 103.988 7.175 103.784 7.283C103.58 7.391 103.421 7.553 103.307 7.769C103.199 7.979 103.145 8.246 103.145 8.57V11H102.02V4.322H103.145V7.49L102.902 7.094C103.07 6.788 103.313 6.554 103.631 6.392C103.955 6.224 104.327 6.14 104.747 6.14ZM110.449 11.063C109.915 11.063 109.447 10.958 109.045 10.748C108.649 10.532 108.34 10.238 108.118 9.866C107.902 9.494 107.794 9.071 107.794 8.597C107.794 8.117 107.899 7.694 108.109 7.328C108.325 6.956 108.619 6.665 108.991 6.455C109.369 6.245 109.798 6.14 110.278 6.14C110.746 6.14 111.163 6.242 111.529 6.446C111.895 6.65 112.183 6.938 112.393 7.31C112.603 7.682 112.708 8.12 112.708 8.624C112.708 8.672 112.705 8.726 112.699 8.786C112.699 8.846 112.696 8.903 112.69 8.957H108.685V8.21H112.096L111.655 8.444C111.661 8.168 111.604 7.925 111.484 7.715C111.364 7.505 111.199 7.34 110.989 7.22C110.785 7.1 110.548 7.04 110.278 7.04C110.002 7.04 109.759 7.1 109.549 7.22C109.345 7.34 109.183 7.508 109.063 7.724C108.949 7.934 108.892 8.183 108.892 8.471V8.651C108.892 8.939 108.958 9.194 109.09 9.416C109.222 9.638 109.408 9.809 109.648 9.929C109.888 10.049 110.164 10.109 110.476 10.109C110.746 10.109 110.989 10.067 111.205 9.983C111.421 9.899 111.613 9.767 111.781 9.587L112.384 10.28C112.168 10.532 111.895 10.727 111.565 10.865C111.241 10.997 110.869 11.063 110.449 11.063Z" fill="#FFFEFE"/>
<path d="M32.925 26L37.65 15.5H39.57L44.31 26H42.27L38.205 16.535H38.985L34.935 26H32.925ZM35.1 23.57L35.625 22.04H41.295L41.82 23.57H35.1ZM49.9054 26.105C49.2554 26.105 48.6604 25.955 48.1204 25.655C47.5904 25.355 47.1654 24.905 46.8454 24.305C46.5354 23.695 46.3804 22.925 46.3804 21.995C46.3804 21.055 46.5304 20.285 46.8304 19.685C47.1404 19.085 47.5604 18.64 48.0904 18.35C48.6204 18.05 49.2254 17.9 49.9054 17.9C50.6954 17.9 51.3904 18.07 51.9904 18.41C52.6004 18.75 53.0804 19.225 53.4304 19.835C53.7904 20.445 53.9704 21.165 53.9704 21.995C53.9704 22.825 53.7904 23.55 53.4304 24.17C53.0804 24.78 52.6004 25.255 51.9904 25.595C51.3904 25.935 50.6954 26.105 49.9054 26.105ZM45.4654 28.91V17.99H47.2504V19.88L47.1904 22.01L47.3404 24.14V28.91H45.4654ZM49.6954 24.5C50.1454 24.5 50.5454 24.4 50.8954 24.2C51.2554 24 51.5404 23.71 51.7504 23.33C51.9604 22.95 52.0654 22.505 52.0654 21.995C52.0654 21.475 51.9604 21.03 51.7504 20.66C51.5404 20.28 51.2554 19.99 50.8954 19.79C50.5454 19.59 50.1454 19.49 49.6954 19.49C49.2454 19.49 48.8404 19.59 48.4804 19.79C48.1204 19.99 47.8354 20.28 47.6254 20.66C47.4154 21.03 47.3104 21.475 47.3104 21.995C47.3104 22.505 47.4154 22.95 47.6254 23.33C47.8354 23.71 48.1204 24 48.4804 24.2C48.8404 24.4 49.2454 24.5 49.6954 24.5ZM60.1886 26.105C59.5386 26.105 58.9436 25.955 58.4036 25.655C57.8736 25.355 57.4486 24.905 57.1286 24.305C56.8186 23.695 56.6636 22.925 56.6636 21.995C56.6636 21.055 56.8136 20.285 57.1136 19.685C57.4236 19.085 57.8436 18.64 58.3736 18.35C58.9036 18.05 59.5086 17.9 60.1886 17.9C60.9786 17.9 61.6736 18.07 62.2736 18.41C62.8836 18.75 63.3636 19.225 63.7136 19.835C64.0736 20.445 64.2536 21.165 64.2536 21.995C64.2536 22.825 64.0736 23.55 63.7136 24.17C63.3636 24.78 62.8836 25.255 62.2736 25.595C61.6736 25.935 60.9786 26.105 60.1886 26.105ZM55.7486 28.91V17.99H57.5336V19.88L57.4736 22.01L57.6236 24.14V28.91H55.7486ZM59.9786 24.5C60.4286 24.5 60.8286 24.4 61.1786 24.2C61.5386 24 61.8236 23.71 62.0336 23.33C62.2436 22.95 62.3486 22.505 62.3486 21.995C62.3486 21.475 62.2436 21.03 62.0336 20.66C61.8236 20.28 61.5386 19.99 61.1786 19.79C60.8286 19.59 60.4286 19.49 59.9786 19.49C59.5286 19.49 59.1236 19.59 58.7636 19.79C58.4036 19.99 58.1186 20.28 57.9086 20.66C57.6986 21.03 57.5936 21.475 57.5936 21.995C57.5936 22.505 57.6986 22.95 57.9086 23.33C58.1186 23.71 58.4036 24 58.7636 24.2C59.1236 24.4 59.5286 24.5 59.9786 24.5ZM73.6123 26.15C72.7923 26.15 72.0073 26.035 71.2573 25.805C70.5073 25.565 69.9123 25.26 69.4723 24.89L70.1473 23.375C70.5673 23.705 71.0873 23.98 71.7073 24.2C72.3273 24.42 72.9623 24.53 73.6123 24.53C74.1623 24.53 74.6073 24.47 74.9473 24.35C75.2873 24.23 75.5373 24.07 75.6973 23.87C75.8573 23.66 75.9373 23.425 75.9373 23.165C75.9373 22.845 75.8223 22.59 75.5923 22.4C75.3623 22.2 75.0623 22.045 74.6923 21.935C74.3323 21.815 73.9273 21.705 73.4773 21.605C73.0373 21.505 72.5923 21.39 72.1423 21.26C71.7023 21.12 71.2973 20.945 70.9273 20.735C70.5673 20.515 70.2723 20.225 70.0423 19.865C69.8123 19.505 69.6973 19.045 69.6973 18.485C69.6973 17.915 69.8473 17.395 70.1473 16.925C70.4573 16.445 70.9223 16.065 71.5423 15.785C72.1723 15.495 72.9673 15.35 73.9273 15.35C74.5573 15.35 75.1823 15.43 75.8023 15.59C76.4223 15.75 76.9623 15.98 77.4223 16.28L76.8073 17.795C76.3373 17.515 75.8523 17.31 75.3523 17.18C74.8523 17.04 74.3723 16.97 73.9123 16.97C73.3723 16.97 72.9323 17.035 72.5923 17.165C72.2623 17.295 72.0173 17.465 71.8573 17.675C71.7073 17.885 71.6323 18.125 71.6323 18.395C71.6323 18.715 71.7423 18.975 71.9623 19.175C72.1923 19.365 72.4873 19.515 72.8473 19.625C73.2173 19.735 73.6273 19.845 74.0773 19.955C74.5273 20.055 74.9723 20.17 75.4123 20.3C75.8623 20.43 76.2673 20.6 76.6273 20.81C76.9973 21.02 77.2923 21.305 77.5123 21.665C77.7423 22.025 77.8573 22.48 77.8573 23.03C77.8573 23.59 77.7023 24.11 77.3923 24.59C77.0923 25.06 76.6273 25.44 75.9973 25.73C75.3673 26.01 74.5723 26.15 73.6123 26.15ZM82.6259 26.105C81.7459 26.105 81.0659 25.88 80.5859 25.43C80.1059 24.97 79.8659 24.295 79.8659 23.405V16.22H81.7409V23.36C81.7409 23.74 81.8359 24.035 82.0259 24.245C82.2259 24.455 82.5009 24.56 82.8509 24.56C83.2709 24.56 83.6209 24.45 83.9009 24.23L84.4259 25.565C84.2059 25.745 83.9359 25.88 83.6159 25.97C83.2959 26.06 82.9659 26.105 82.6259 26.105ZM78.5459 19.55V18.05H83.8859V19.55H78.5459ZM89.3046 26.105C88.4846 26.105 87.7546 25.93 87.1146 25.58C86.4746 25.22 85.9696 24.73 85.5996 24.11C85.2296 23.49 85.0446 22.785 85.0446 21.995C85.0446 21.195 85.2296 20.49 85.5996 19.88C85.9696 19.26 86.4746 18.775 87.1146 18.425C87.7546 18.075 88.4846 17.9 89.3046 17.9C90.1346 17.9 90.8696 18.075 91.5096 18.425C92.1596 18.775 92.6646 19.255 93.0246 19.865C93.3946 20.475 93.5796 21.185 93.5796 21.995C93.5796 22.785 93.3946 23.49 93.0246 24.11C92.6646 24.73 92.1596 25.22 91.5096 25.58C90.8696 25.93 90.1346 26.105 89.3046 26.105ZM89.3046 24.5C89.7646 24.5 90.1746 24.4 90.5346 24.2C90.8946 24 91.1746 23.71 91.3746 23.33C91.5846 22.95 91.6896 22.505 91.6896 21.995C91.6896 21.475 91.5846 21.03 91.3746 20.66C91.1746 20.28 90.8946 19.99 90.5346 19.79C90.1746 19.59 89.7696 19.49 89.3196 19.49C88.8596 19.49 88.4496 19.59 88.0896 19.79C87.7396 19.99 87.4596 20.28 87.2496 20.66C87.0396 21.03 86.9346 21.475 86.9346 21.995C86.9346 22.505 87.0396 22.95 87.2496 23.33C87.4596 23.71 87.7396 24 88.0896 24.2C88.4496 24.4 88.8546 24.5 89.3046 24.5ZM95.3726 26V17.99H97.1576V20.195L96.9476 19.55C97.1876 19.01 97.5626 18.6 98.0726 18.32C98.5926 18.04 99.2376 17.9 100.008 17.9V19.685C99.9276 19.665 99.8526 19.655 99.7826 19.655C99.7126 19.645 99.6426 19.64 99.5726 19.64C98.8626 19.64 98.2976 19.85 97.8776 20.27C97.4576 20.68 97.2476 21.295 97.2476 22.115V26H95.3726ZM105.29 26.105C104.4 26.105 103.62 25.93 102.95 25.58C102.29 25.22 101.775 24.73 101.405 24.11C101.045 23.49 100.865 22.785 100.865 21.995C100.865 21.195 101.04 20.49 101.39 19.88C101.75 19.26 102.24 18.775 102.86 18.425C103.49 18.075 104.205 17.9 105.005 17.9C105.785 17.9 106.48 18.07 107.09 18.41C107.7 18.75 108.18 19.23 108.53 19.85C108.88 20.47 109.055 21.2 109.055 22.04C109.055 22.12 109.05 22.21 109.04 22.31C109.04 22.41 109.035 22.505 109.025 22.595H102.35V21.35H108.035L107.3 21.74C107.31 21.28 107.215 20.875 107.015 20.525C106.815 20.175 106.54 19.9 106.19 19.7C105.85 19.5 105.455 19.4 105.005 19.4C104.545 19.4 104.14 19.5 103.79 19.7C103.45 19.9 103.18 20.18 102.98 20.54C102.79 20.89 102.695 21.305 102.695 21.785V22.085C102.695 22.565 102.805 22.99 103.025 23.36C103.245 23.73 103.555 24.015 103.955 24.215C104.355 24.415 104.815 24.515 105.335 24.515C105.785 24.515 106.19 24.445 106.55 24.305C106.91 24.165 107.23 23.945 107.51 23.645L108.515 24.8C108.155 25.22 107.7 25.545 107.15 25.775C106.61 25.995 105.99 26.105 105.29 26.105Z" fill="white"/>
</svg>
