<svg width="333" height="290" viewBox="0 0 333 290" fill="none" xmlns="http://www.w3.org/2000/svg">
<rect width="333" height="289.243" rx="40" fill="#19AE4C"/>
<path d="M201.89 207.81C202.686 209.071 203.161 210.509 203.272 211.996V211.996C203.812 219.206 196.034 224.084 189.694 220.607V220.607C188.33 219.859 187.162 218.768 186.331 217.452L143.435 149.603C140.922 145.627 142.685 140.358 146.611 137.769V137.769C150.65 135.106 156.359 135.703 158.942 139.793L201.89 207.81ZM149.623 97.5853C150.157 104.72 147.835 111.775 143.167 117.198C138.5 122.62 131.869 125.967 124.734 126.5V126.5C122.306 126.682 120.176 128.189 119.196 130.418L77.3578 225.604C76.7313 227.03 75.739 228.283 74.5006 229.227V229.227C68.7497 233.608 60.333 229.943 59.7935 222.733V222.733C59.6821 221.245 59.9382 219.752 60.5393 218.385L93.0049 144.572C99.7574 129.219 92.891 109.743 96.7048 93.4109C97.7734 88.835 100.05 84.4739 103.552 80.833C105.983 78.3233 108.868 76.3013 112.034 74.8921C116.571 72.8722 120.408 68.6811 120.037 63.7285L119.893 61.8039C119.602 57.9143 122.948 54.3685 125.904 56.9131V56.9131C127.711 58.469 128.827 60.6792 129.005 63.0575V63.0575C129.479 69.3954 134.215 74.4295 139.247 78.3116C145.163 82.875 149.042 89.8128 149.623 97.5853ZM131.689 98.9272C131.511 96.5489 130.395 94.3387 128.588 92.7828C126.78 91.2269 124.429 90.4528 122.05 90.6308C119.672 90.8087 117.462 91.9241 115.906 93.7317C114.35 95.5392 113.576 97.8908 113.754 100.269C113.932 102.647 115.047 104.858 116.855 106.414C118.662 107.969 121.014 108.744 123.392 108.566C125.77 108.388 127.981 107.272 129.537 105.465C131.092 103.657 131.867 101.306 131.689 98.9272Z" fill="#FCFFFD"/>
<path d="M233.256 203.984L252.247 142.028C255.325 131.987 250.028 121.289 240.177 117.65V117.65C229.506 113.707 217.715 119.545 214.381 130.421L196.046 190.235C195.71 191.336 195.672 192.523 195.936 193.672L196.422 195.385C200.721 210.557 219.034 216.524 231.446 206.797V206.797C232.292 206.057 232.919 205.083 233.256 203.984ZM265.633 98.3588C266.62 95.1365 266.311 91.5825 264.774 88.4782C263.237 85.374 260.598 82.9737 257.437 81.8052L244.067 76.8653C240.906 75.6978 237.482 75.8579 234.548 77.3103C231.615 78.7628 229.411 81.3887 228.423 84.6106V84.6106C226.079 92.2582 230.113 100.406 237.616 103.178L248.086 107.046C255.344 109.728 263.365 105.757 265.633 98.3588V98.3588Z" fill="#FBFFFC"/>
</svg>
