<svg width="130" height="34" viewBox="0 0 130 34" fill="none" xmlns="http://www.w3.org/2000/svg">
<rect width="130" height="34" rx="10" fill="black"/>
<path d="M33.846 11V4.7H36.6C37.284 4.7 37.884 4.832 38.4 5.096C38.916 5.36 39.318 5.726 39.606 6.194C39.894 6.662 40.038 7.214 40.038 7.85C40.038 8.48 39.894 9.032 39.606 9.506C39.318 9.974 38.916 10.34 38.4 10.604C37.884 10.868 37.284 11 36.6 11H33.846ZM35.016 10.01H36.546C37.02 10.01 37.428 9.92 37.77 9.74C38.118 9.56 38.385 9.308 38.571 8.984C38.763 8.66 38.859 8.282 38.859 7.85C38.859 7.412 38.763 7.034 38.571 6.716C38.385 6.392 38.118 6.14 37.77 5.96C37.428 5.78 37.02 5.69 36.546 5.69H35.016V10.01ZM43.3335 11.063C42.8415 11.063 42.4035 10.958 42.0195 10.748C41.6355 10.532 41.3325 10.238 41.1105 9.866C40.8885 9.494 40.7775 9.071 40.7775 8.597C40.7775 8.117 40.8885 7.694 41.1105 7.328C41.3325 6.956 41.6355 6.665 42.0195 6.455C42.4035 6.245 42.8415 6.14 43.3335 6.14C43.8315 6.14 44.2725 6.245 44.6565 6.455C45.0465 6.665 45.3495 6.953 45.5655 7.319C45.7875 7.685 45.8985 8.111 45.8985 8.597C45.8985 9.071 45.7875 9.494 45.5655 9.866C45.3495 10.238 45.0465 10.532 44.6565 10.748C44.2725 10.958 43.8315 11.063 43.3335 11.063ZM43.3335 10.1C43.6095 10.1 43.8555 10.04 44.0715 9.92C44.2875 9.8 44.4555 9.626 44.5755 9.398C44.7015 9.17 44.7645 8.903 44.7645 8.597C44.7645 8.285 44.7015 8.018 44.5755 7.796C44.4555 7.568 44.2875 7.394 44.0715 7.274C43.8555 7.154 43.6125 7.094 43.3425 7.094C43.0665 7.094 42.8205 7.154 42.6045 7.274C42.3945 7.394 42.2265 7.568 42.1005 7.796C41.9745 8.018 41.9115 8.285 41.9115 8.597C41.9115 8.903 41.9745 9.17 42.1005 9.398C42.2265 9.626 42.3945 9.8 42.6045 9.92C42.8205 10.04 43.0635 10.1 43.3335 10.1ZM47.9045 11L46.1405 6.194H47.2025L48.7145 10.433H48.2105L49.7945 6.194H50.7395L52.2785 10.433H51.7835L53.3405 6.194H54.3395L52.5665 11H51.4865L50.0825 7.247H50.4155L48.9845 11H47.9045ZM57.84 6.14C58.224 6.14 58.566 6.215 58.866 6.365C59.172 6.515 59.412 6.746 59.586 7.058C59.76 7.364 59.847 7.76 59.847 8.246V11H58.722V8.39C58.722 7.964 58.62 7.646 58.416 7.436C58.218 7.226 57.939 7.121 57.579 7.121C57.315 7.121 57.081 7.175 56.877 7.283C56.673 7.391 56.514 7.553 56.4 7.769C56.292 7.979 56.238 8.246 56.238 8.57V11H55.113V6.194H56.184V7.49L55.995 7.094C56.163 6.788 56.406 6.554 56.724 6.392C57.048 6.224 57.42 6.14 57.84 6.14ZM61.2741 11V4.322H62.3991V11H61.2741ZM66.0357 11.063C65.5437 11.063 65.1057 10.958 64.7217 10.748C64.3377 10.532 64.0347 10.238 63.8127 9.866C63.5907 9.494 63.4797 9.071 63.4797 8.597C63.4797 8.117 63.5907 7.694 63.8127 7.328C64.0347 6.956 64.3377 6.665 64.7217 6.455C65.1057 6.245 65.5437 6.14 66.0357 6.14C66.5337 6.14 66.9747 6.245 67.3587 6.455C67.7487 6.665 68.0517 6.953 68.2677 7.319C68.4897 7.685 68.6007 8.111 68.6007 8.597C68.6007 9.071 68.4897 9.494 68.2677 9.866C68.0517 10.238 67.7487 10.532 67.3587 10.748C66.9747 10.958 66.5337 11.063 66.0357 11.063ZM66.0357 10.1C66.3117 10.1 66.5577 10.04 66.7737 9.92C66.9897 9.8 67.1577 9.626 67.2777 9.398C67.4037 9.17 67.4667 8.903 67.4667 8.597C67.4667 8.285 67.4037 8.018 67.2777 7.796C67.1577 7.568 66.9897 7.394 66.7737 7.274C66.5577 7.154 66.3147 7.094 66.0447 7.094C65.7687 7.094 65.5227 7.154 65.3067 7.274C65.0967 7.394 64.9287 7.568 64.8027 7.796C64.6767 8.018 64.6137 8.285 64.6137 8.597C64.6137 8.903 64.6767 9.17 64.8027 9.398C64.9287 9.626 65.0967 9.8 65.3067 9.92C65.5227 10.04 65.7657 10.1 66.0357 10.1ZM72.576 11V10.028L72.513 9.821V8.12C72.513 7.79 72.414 7.535 72.216 7.355C72.018 7.169 71.718 7.076 71.316 7.076C71.046 7.076 70.779 7.118 70.515 7.202C70.257 7.286 70.038 7.403 69.858 7.553L69.417 6.734C69.675 6.536 69.981 6.389 70.335 6.293C70.695 6.191 71.067 6.14 71.451 6.14C72.147 6.14 72.684 6.308 73.062 6.644C73.446 6.974 73.638 7.487 73.638 8.183V11H72.576ZM71.064 11.063C70.704 11.063 70.389 11.003 70.119 10.883C69.849 10.757 69.639 10.586 69.489 10.37C69.345 10.148 69.273 9.899 69.273 9.623C69.273 9.353 69.336 9.11 69.462 8.894C69.594 8.678 69.807 8.507 70.101 8.381C70.395 8.255 70.785 8.192 71.271 8.192H72.666V8.939H71.352C70.968 8.939 70.71 9.002 70.578 9.128C70.446 9.248 70.38 9.398 70.38 9.578C70.38 9.782 70.461 9.944 70.623 10.064C70.785 10.184 71.01 10.244 71.298 10.244C71.574 10.244 71.82 10.181 72.036 10.055C72.258 9.929 72.417 9.743 72.513 9.497L72.702 10.172C72.594 10.454 72.399 10.673 72.117 10.829C71.841 10.985 71.49 11.063 71.064 11.063ZM77.1245 11.063C76.6625 11.063 76.2455 10.961 75.8735 10.757C75.5075 10.547 75.2195 10.259 75.0095 9.893C74.7995 9.527 74.6945 9.095 74.6945 8.597C74.6945 8.099 74.7995 7.667 75.0095 7.301C75.2195 6.935 75.5075 6.65 75.8735 6.446C76.2455 6.242 76.6625 6.14 77.1245 6.14C77.5265 6.14 77.8865 6.23 78.2045 6.41C78.5225 6.584 78.7745 6.851 78.9605 7.211C79.1465 7.571 79.2395 8.033 79.2395 8.597C79.2395 9.155 79.1495 9.617 78.9695 9.983C78.7895 10.343 78.5405 10.613 78.2225 10.793C77.9045 10.973 77.5385 11.063 77.1245 11.063ZM77.2595 10.1C77.5295 10.1 77.7695 10.04 77.9795 9.92C78.1955 9.8 78.3665 9.626 78.4925 9.398C78.6245 9.17 78.6905 8.903 78.6905 8.597C78.6905 8.285 78.6245 8.018 78.4925 7.796C78.3665 7.568 78.1955 7.394 77.9795 7.274C77.7695 7.154 77.5295 7.094 77.2595 7.094C76.9895 7.094 76.7465 7.154 76.5305 7.274C76.3205 7.394 76.1495 7.568 76.0175 7.796C75.8915 8.018 75.8285 8.285 75.8285 8.597C75.8285 8.903 75.8915 9.17 76.0175 9.398C76.1495 9.626 76.3205 9.8 76.5305 9.92C76.7465 10.04 76.9895 10.1 77.2595 10.1ZM78.7175 11V9.866L78.7625 8.588L78.6725 7.31V4.322H79.7885V11H78.7175ZM85.9166 11.063C85.4246 11.063 84.9866 10.958 84.6026 10.748C84.2186 10.532 83.9156 10.238 83.6936 9.866C83.4716 9.494 83.3606 9.071 83.3606 8.597C83.3606 8.117 83.4716 7.694 83.6936 7.328C83.9156 6.956 84.2186 6.665 84.6026 6.455C84.9866 6.245 85.4246 6.14 85.9166 6.14C86.4146 6.14 86.8556 6.245 87.2396 6.455C87.6296 6.665 87.9326 6.953 88.1486 7.319C88.3706 7.685 88.4816 8.111 88.4816 8.597C88.4816 9.071 88.3706 9.494 88.1486 9.866C87.9326 10.238 87.6296 10.532 87.2396 10.748C86.8556 10.958 86.4146 11.063 85.9166 11.063ZM85.9166 10.1C86.1926 10.1 86.4386 10.04 86.6546 9.92C86.8706 9.8 87.0386 9.626 87.1586 9.398C87.2846 9.17 87.3476 8.903 87.3476 8.597C87.3476 8.285 87.2846 8.018 87.1586 7.796C87.0386 7.568 86.8706 7.394 86.6546 7.274C86.4386 7.154 86.1956 7.094 85.9256 7.094C85.6496 7.094 85.4036 7.154 85.1876 7.274C84.9776 7.394 84.8096 7.568 84.6836 7.796C84.5576 8.018 84.4946 8.285 84.4946 8.597C84.4946 8.903 84.5576 9.17 84.6836 9.398C84.8096 9.626 84.9776 9.8 85.1876 9.92C85.4036 10.04 85.6466 10.1 85.9166 10.1ZM92.2843 6.14C92.6683 6.14 93.0103 6.215 93.3103 6.365C93.6163 6.515 93.8563 6.746 94.0303 7.058C94.2043 7.364 94.2913 7.76 94.2913 8.246V11H93.1663V8.39C93.1663 7.964 93.0643 7.646 92.8603 7.436C92.6623 7.226 92.3833 7.121 92.0233 7.121C91.7593 7.121 91.5253 7.175 91.3213 7.283C91.1173 7.391 90.9583 7.553 90.8443 7.769C90.7363 7.979 90.6823 8.246 90.6823 8.57V11H89.5573V6.194H90.6283V7.49L90.4393 7.094C90.6073 6.788 90.8503 6.554 91.1683 6.392C91.4923 6.224 91.8643 6.14 92.2843 6.14ZM100.015 11.063C99.4868 11.063 99.0788 10.928 98.7908 10.658C98.5028 10.382 98.3588 9.977 98.3588 9.443V5.132H99.4838V9.416C99.4838 9.644 99.5408 9.821 99.6548 9.947C99.7748 10.073 99.9398 10.136 100.15 10.136C100.402 10.136 100.612 10.07 100.78 9.938L101.095 10.739C100.963 10.847 100.801 10.928 100.609 10.982C100.417 11.036 100.219 11.063 100.015 11.063ZM97.5668 7.13V6.23H100.771V7.13H97.5668ZM104.747 6.14C105.131 6.14 105.473 6.215 105.773 6.365C106.079 6.515 106.319 6.746 106.493 7.058C106.667 7.364 106.754 7.76 106.754 8.246V11H105.629V8.39C105.629 7.964 105.527 7.646 105.323 7.436C105.125 7.226 104.846 7.121 104.486 7.121C104.222 7.121 103.988 7.175 103.784 7.283C103.58 7.391 103.421 7.553 103.307 7.769C103.199 7.979 103.145 8.246 103.145 8.57V11H102.02V4.322H103.145V7.49L102.902 7.094C103.07 6.788 103.313 6.554 103.631 6.392C103.955 6.224 104.327 6.14 104.747 6.14ZM110.449 11.063C109.915 11.063 109.447 10.958 109.045 10.748C108.649 10.532 108.34 10.238 108.118 9.866C107.902 9.494 107.794 9.071 107.794 8.597C107.794 8.117 107.899 7.694 108.109 7.328C108.325 6.956 108.619 6.665 108.991 6.455C109.369 6.245 109.798 6.14 110.278 6.14C110.746 6.14 111.163 6.242 111.529 6.446C111.895 6.65 112.183 6.938 112.393 7.31C112.603 7.682 112.708 8.12 112.708 8.624C112.708 8.672 112.705 8.726 112.699 8.786C112.699 8.846 112.696 8.903 112.69 8.957H108.685V8.21H112.096L111.655 8.444C111.661 8.168 111.604 7.925 111.484 7.715C111.364 7.505 111.199 7.34 110.989 7.22C110.785 7.1 110.548 7.04 110.278 7.04C110.002 7.04 109.759 7.1 109.549 7.22C109.345 7.34 109.183 7.508 109.063 7.724C108.949 7.934 108.892 8.183 108.892 8.471V8.651C108.892 8.939 108.958 9.194 109.09 9.416C109.222 9.638 109.408 9.809 109.648 9.929C109.888 10.049 110.164 10.109 110.476 10.109C110.746 10.109 110.989 10.067 111.205 9.983C111.421 9.899 111.613 9.767 111.781 9.587L112.384 10.28C112.168 10.532 111.895 10.727 111.565 10.865C111.241 10.997 110.869 11.063 110.449 11.063Z" fill="#FFFEFE"/>
<path d="M39.315 26.15C38.495 26.15 37.74 26.02 37.05 25.76C36.37 25.49 35.775 25.115 35.265 24.635C34.755 24.145 34.36 23.57 34.08 22.91C33.8 22.25 33.66 21.53 33.66 20.75C33.66 19.97 33.8 19.25 34.08 18.59C34.36 17.93 34.755 17.36 35.265 16.88C35.785 16.39 36.39 16.015 37.08 15.755C37.77 15.485 38.525 15.35 39.345 15.35C40.235 15.35 41.035 15.495 41.745 15.785C42.465 16.075 43.07 16.5 43.56 17.06L42.33 18.26C41.92 17.85 41.475 17.55 40.995 17.36C40.525 17.16 40.005 17.06 39.435 17.06C38.885 17.06 38.375 17.15 37.905 17.33C37.435 17.51 37.03 17.765 36.69 18.095C36.35 18.425 36.085 18.815 35.895 19.265C35.715 19.715 35.625 20.21 35.625 20.75C35.625 21.28 35.715 21.77 35.895 22.22C36.085 22.67 36.35 23.065 36.69 23.405C37.03 23.735 37.43 23.99 37.89 24.17C38.35 24.35 38.86 24.44 39.42 24.44C39.94 24.44 40.44 24.36 40.92 24.2C41.41 24.03 41.875 23.75 42.315 23.36L43.425 24.815C42.875 25.255 42.235 25.59 41.505 25.82C40.785 26.04 40.055 26.15 39.315 26.15ZM41.58 24.56V20.63H43.425V24.815L41.58 24.56ZM49.4169 26.105C48.5969 26.105 47.8669 25.93 47.2269 25.58C46.5869 25.22 46.0819 24.73 45.7119 24.11C45.3419 23.49 45.1569 22.785 45.1569 21.995C45.1569 21.195 45.3419 20.49 45.7119 19.88C46.0819 19.26 46.5869 18.775 47.2269 18.425C47.8669 18.075 48.5969 17.9 49.4169 17.9C50.2469 17.9 50.9819 18.075 51.6219 18.425C52.2719 18.775 52.7769 19.255 53.1369 19.865C53.5069 20.475 53.6919 21.185 53.6919 21.995C53.6919 22.785 53.5069 23.49 53.1369 24.11C52.7769 24.73 52.2719 25.22 51.6219 25.58C50.9819 25.93 50.2469 26.105 49.4169 26.105ZM49.4169 24.5C49.8769 24.5 50.2869 24.4 50.6469 24.2C51.0069 24 51.2869 23.71 51.4869 23.33C51.6969 22.95 51.8019 22.505 51.8019 21.995C51.8019 21.475 51.6969 21.03 51.4869 20.66C51.2869 20.28 51.0069 19.99 50.6469 19.79C50.2869 19.59 49.8819 19.49 49.4319 19.49C48.9719 19.49 48.5619 19.59 48.2019 19.79C47.8519 19.99 47.5719 20.28 47.3619 20.66C47.1519 21.03 47.0469 21.475 47.0469 21.995C47.0469 22.505 47.1519 22.95 47.3619 23.33C47.5719 23.71 47.8519 24 48.2019 24.2C48.5619 24.4 48.9669 24.5 49.4169 24.5ZM59.0849 26.105C58.2649 26.105 57.5349 25.93 56.8949 25.58C56.2549 25.22 55.7499 24.73 55.3799 24.11C55.0099 23.49 54.8249 22.785 54.8249 21.995C54.8249 21.195 55.0099 20.49 55.3799 19.88C55.7499 19.26 56.2549 18.775 56.8949 18.425C57.5349 18.075 58.2649 17.9 59.0849 17.9C59.9149 17.9 60.6499 18.075 61.2899 18.425C61.9399 18.775 62.4449 19.255 62.8049 19.865C63.1749 20.475 63.3599 21.185 63.3599 21.995C63.3599 22.785 63.1749 23.49 62.8049 24.11C62.4449 24.73 61.9399 25.22 61.2899 25.58C60.6499 25.93 59.9149 26.105 59.0849 26.105ZM59.0849 24.5C59.5449 24.5 59.9549 24.4 60.3149 24.2C60.6749 24 60.9549 23.71 61.1549 23.33C61.3649 22.95 61.4699 22.505 61.4699 21.995C61.4699 21.475 61.3649 21.03 61.1549 20.66C60.9549 20.28 60.6749 19.99 60.3149 19.79C59.9549 19.59 59.5499 19.49 59.0999 19.49C58.6399 19.49 58.2299 19.59 57.8699 19.79C57.5199 19.99 57.2399 20.28 57.0299 20.66C56.8199 21.03 56.7149 21.475 56.7149 21.995C56.7149 22.505 56.8199 22.95 57.0299 23.33C57.2399 23.71 57.5199 24 57.8699 24.2C58.2299 24.4 58.6349 24.5 59.0849 24.5ZM68.7829 29.015C68.0429 29.015 67.3179 28.915 66.6079 28.715C65.9079 28.525 65.3329 28.245 64.8829 27.875L65.7229 26.465C66.0729 26.755 66.5129 26.985 67.0429 27.155C67.5829 27.335 68.1279 27.425 68.6779 27.425C69.5579 27.425 70.2029 27.22 70.6129 26.81C71.0229 26.41 71.2279 25.805 71.2279 24.995V23.57L71.3779 21.755L71.3179 19.94V17.99H73.1029V24.785C73.1029 26.235 72.7329 27.3 71.9929 27.98C71.2529 28.67 70.1829 29.015 68.7829 29.015ZM68.5429 25.64C67.7829 25.64 67.0929 25.48 66.4729 25.16C65.8629 24.83 65.3779 24.375 65.0179 23.795C64.6679 23.215 64.4929 22.535 64.4929 21.755C64.4929 20.985 64.6679 20.31 65.0179 19.73C65.3779 19.15 65.8629 18.7 66.4729 18.38C67.0929 18.06 67.7829 17.9 68.5429 17.9C69.2229 17.9 69.8329 18.035 70.3729 18.305C70.9129 18.575 71.3429 18.995 71.6629 19.565C71.9929 20.135 72.1579 20.865 72.1579 21.755C72.1579 22.645 71.9929 23.38 71.6629 23.96C71.3429 24.53 70.9129 24.955 70.3729 25.235C69.8329 25.505 69.2229 25.64 68.5429 25.64ZM68.8279 24.05C69.2979 24.05 69.7179 23.955 70.0879 23.765C70.4579 23.565 70.7429 23.295 70.9429 22.955C71.1529 22.605 71.2579 22.205 71.2579 21.755C71.2579 21.305 71.1529 20.91 70.9429 20.57C70.7429 20.22 70.4579 19.955 70.0879 19.775C69.7179 19.585 69.2979 19.49 68.8279 19.49C68.3579 19.49 67.9329 19.585 67.5529 19.775C67.1829 19.955 66.8929 20.22 66.6829 20.57C66.4829 20.91 66.3829 21.305 66.3829 21.755C66.3829 22.205 66.4829 22.605 66.6829 22.955C66.8929 23.295 67.1829 23.565 67.5529 23.765C67.9329 23.955 68.3579 24.05 68.8279 24.05ZM75.5679 26V14.87H77.4429V26H75.5679ZM83.6688 26.105C82.7788 26.105 81.9988 25.93 81.3288 25.58C80.6688 25.22 80.1538 24.73 79.7838 24.11C79.4238 23.49 79.2438 22.785 79.2438 21.995C79.2438 21.195 79.4188 20.49 79.7688 19.88C80.1288 19.26 80.6188 18.775 81.2388 18.425C81.8688 18.075 82.5838 17.9 83.3838 17.9C84.1638 17.9 84.8588 18.07 85.4688 18.41C86.0788 18.75 86.5588 19.23 86.9088 19.85C87.2588 20.47 87.4338 21.2 87.4338 22.04C87.4338 22.12 87.4288 22.21 87.4188 22.31C87.4188 22.41 87.4138 22.505 87.4038 22.595H80.7288V21.35H86.4138L85.6788 21.74C85.6888 21.28 85.5938 20.875 85.3938 20.525C85.1938 20.175 84.9188 19.9 84.5688 19.7C84.2288 19.5 83.8338 19.4 83.3838 19.4C82.9238 19.4 82.5188 19.5 82.1688 19.7C81.8288 19.9 81.5588 20.18 81.3588 20.54C81.1688 20.89 81.0738 21.305 81.0738 21.785V22.085C81.0738 22.565 81.1838 22.99 81.4038 23.36C81.6238 23.73 81.9338 24.015 82.3338 24.215C82.7338 24.415 83.1938 24.515 83.7138 24.515C84.1638 24.515 84.5688 24.445 84.9288 24.305C85.2888 24.165 85.6088 23.945 85.8888 23.645L86.8938 24.8C86.5338 25.22 86.0788 25.545 85.5288 25.775C84.9888 25.995 84.3688 26.105 83.6688 26.105ZM93.5604 26V15.5H97.8804C98.8104 15.5 99.6054 15.65 100.265 15.95C100.935 16.25 101.45 16.68 101.81 17.24C102.17 17.8 102.35 18.465 102.35 19.235C102.35 20.005 102.17 20.67 101.81 21.23C101.45 21.79 100.935 22.22 100.265 22.52C99.6054 22.82 98.8104 22.97 97.8804 22.97H94.6404L95.5104 22.055V26H93.5604ZM95.5104 22.265L94.6404 21.32H97.7904C98.6504 21.32 99.2954 21.14 99.7254 20.78C100.165 20.41 100.385 19.895 100.385 19.235C100.385 18.565 100.165 18.05 99.7254 17.69C99.2954 17.33 98.6504 17.15 97.7904 17.15H94.6404L95.5104 16.19V22.265ZM104.264 26V14.87H106.139V26H104.264ZM113.535 26V24.38L113.43 24.035V21.2C113.43 20.65 113.265 20.225 112.935 19.925C112.605 19.615 112.105 19.46 111.435 19.46C110.985 19.46 110.54 19.53 110.1 19.67C109.67 19.81 109.305 20.005 109.005 20.255L108.27 18.89C108.7 18.56 109.21 18.315 109.8 18.155C110.4 17.985 111.02 17.9 111.66 17.9C112.82 17.9 113.715 18.18 114.345 18.74C114.985 19.29 115.305 20.145 115.305 21.305V26H113.535ZM111.015 26.105C110.415 26.105 109.89 26.005 109.44 25.805C108.99 25.595 108.64 25.31 108.39 24.95C108.15 24.58 108.03 24.165 108.03 23.705C108.03 23.255 108.135 22.85 108.345 22.49C108.565 22.13 108.92 21.845 109.41 21.635C109.9 21.425 110.55 21.32 111.36 21.32H113.685V22.565H111.495C110.855 22.565 110.425 22.67 110.205 22.88C109.985 23.08 109.875 23.33 109.875 23.63C109.875 23.97 110.01 24.24 110.28 24.44C110.55 24.64 110.925 24.74 111.405 24.74C111.865 24.74 112.275 24.635 112.635 24.425C113.005 24.215 113.27 23.905 113.43 23.495L113.745 24.62C113.565 25.09 113.24 25.455 112.77 25.715C112.31 25.975 111.725 26.105 111.015 26.105ZM118.225 29.015C117.835 29.015 117.445 28.95 117.055 28.82C116.665 28.69 116.34 28.51 116.08 28.28L116.83 26.9C117.02 27.07 117.235 27.205 117.475 27.305C117.715 27.405 117.96 27.455 118.21 27.455C118.55 27.455 118.825 27.37 119.035 27.2C119.245 27.03 119.44 26.745 119.62 26.345L120.085 25.295L120.235 25.07L123.265 17.99H125.065L121.315 26.645C121.065 27.245 120.785 27.72 120.475 28.07C120.175 28.42 119.835 28.665 119.455 28.805C119.085 28.945 118.675 29.015 118.225 29.015ZM119.875 26.285L116.26 17.99H118.21L121.15 24.905L119.875 26.285Z" fill="white"/>
<path d="M24.5317 20.7142C27.2019 19.248 29.226 18.1309 29.4005 18.044C29.9586 17.7472 30.535 16.9616 29.4005 16.3514C29.0342 16.1595 27.062 15.0771 24.5317 13.6813L21.024 17.2238L24.5317 20.7141V20.7142Z" fill="#FFD900"/>
<path d="M21.024 17.2238L9.85498 28.4804C10.1171 28.5151 10.4131 28.4456 10.7621 28.2538C11.4947 27.8528 19.261 23.6116 24.5317 20.7149L21.024 17.2238Z" fill="#F43249"/>
<path d="M21.024 17.2238L24.5317 13.6988C24.5317 13.6988 11.5477 6.61282 10.7621 6.19453C10.4661 6.01924 10.1344 5.96717 9.83765 6.01924L21.024 17.2238V17.2238Z" fill="#00EE76"/>
<path d="M21.024 17.2239L9.83765 6.01929C9.38366 6.12425 9 6.52535 9 7.34564V27.1542C9 27.905 9.29688 28.4458 9.85501 28.4979L21.024 17.2239Z" fill="#00D3FF"/>
</svg>
